<svg viewBox="0 0 70 26" fill="none" xmlns="http://www.w3.org/2000/svg" width="90" height="50">
<path d="M0 12.3725H4.52871C4.57244 13.2697 4.90542 13.9421 5.52771 14.3897C6.19366 14.8383 7.08131 15.0621 8.19167 15.0621C8.99089 15.0621 9.67868 14.9056 10.2562 14.5914C10.789 14.2783 11.0554 13.8518 11.0554 13.3138C11.0554 12.5069 10.123 11.9017 8.25827 11.4983C7.45905 11.3638 6.85969 11.2293 6.46012 11.0949C4.10628 10.5128 2.53084 9.81727 1.73163 9.0104C0.842956 8.20347 0.399646 7.12765 0.399646 5.78281C0.399646 4.07973 1.04274 2.66764 2.33099 1.54656C3.66297 0.515865 5.39452 0 7.52565 0C9.8337 0 11.6766 0.515865 13.0534 1.54656C14.3406 2.66757 15.0284 4.12485 15.1179 5.91728H12.2541C11.4102 5.91728 10.7661 5.53693 10.3228 4.77416C10.1448 4.59552 9.96696 4.41585 9.79004 4.23625C9.25727 3.83282 8.52465 3.6311 7.59231 3.6311C6.70364 3.6311 6.03769 3.76558 5.59438 4.03453C5.19481 4.30349 4.99502 4.70692 4.99502 5.2449C4.99502 5.96248 6.14905 6.56763 8.45813 7.06041C8.72451 7.15073 8.9577 7.21797 9.15734 7.26213C9.35728 7.30732 9.54556 7.32937 9.72351 7.32937C11.9878 7.91247 13.5633 8.58486 14.452 9.3466C15.2949 10.1535 15.7174 11.2293 15.7174 12.5742C15.7174 14.5473 15.0067 16.0707 13.5863 17.1466C12.2543 18.1332 10.2563 18.626 7.59239 18.626C5.06162 18.626 3.17401 18.1111 1.93149 17.0794C0.643096 16.0487 0 14.5473 0 12.5742V12.3725Z" fill="#fff"/>
<path d="M29.1115 12.7759H32.4415C31.9524 14.6587 31.02 16.0938 29.6443 17.0794C28.2676 18.1111 26.536 18.626 24.4496 18.626C21.9189 18.626 19.9428 17.797 18.5224 16.138C17.1009 14.5242 16.3912 12.2159 16.3912 9.21212C16.3912 6.34379 17.0791 4.10177 18.4558 2.48797C19.8762 0.830015 21.8523 0 24.3831 0C27.047 0 29.1115 0.806936 30.5767 2.42073C31.9971 4.07973 32.7078 6.38795 32.7078 9.3466C32.7078 9.52627 32.7078 9.68279 32.7078 9.81727C32.7078 9.95174 32.7078 10.0421 32.7078 10.0862C32.7078 10.311 32.685 10.4676 32.6413 10.5569H21.1197C21.1635 11.9469 21.4964 12.9776 22.1187 13.65C22.6952 14.3676 23.561 14.7259 24.7161 14.7259C25.4706 14.7259 26.1147 14.5694 26.6474 14.2552C26.7806 14.2111 26.9023 14.1324 27.0137 14.0199C27.124 13.9085 27.2468 13.7846 27.38 13.65C27.4237 13.5155 27.5902 13.3369 27.8796 13.1121C28.1676 12.8883 28.5788 12.7759 29.1115 12.7759ZM21.1197 7.53108H27.9128C27.8233 6.32072 27.5132 5.4245 26.9803 4.84139C26.4028 4.21413 25.5818 3.89998 24.5162 3.89998C23.5391 3.89998 22.7399 4.21413 22.1186 4.84139C21.4964 5.46962 21.1635 6.36584 21.1197 7.53108Z" fill="#fff"/>
<path d="M33.7814 18.2896V9.61544C33.7814 7.86716 34.0363 6.39946 34.5472 5.21106C35.0571 4.02392 35.7565 3.07097 36.6452 2.35331C37.4881 1.68093 38.4767 1.18814 39.6088 0.87399C40.7411 0.560876 41.9067 0.40332 43.1052 0.40332C43.1936 0.40332 43.3049 0.40332 43.4383 0.40332C43.5713 0.40332 43.6817 0.40332 43.7715 0.40332V5.17748H42.2393C40.9511 5.17748 39.9971 5.49163 39.3757 6.11889C38.7534 6.74719 38.4433 7.73269 38.4433 9.07753V18.2897H33.7814V18.2896Z" fill="#fff"/>
<path d="M45.44 0.40332H47.8376C48.4587 0.40332 48.9915 0.628114 49.4359 1.0757C49.8792 1.52433 50.1019 2.06224 50.1019 2.6895V18.2896H45.44V0.40332Z" fill="#fff"/>
<path d="M53.822 18.3928C55.2884 18.3928 56.4771 17.1926 56.4771 15.7122C56.4771 14.2317 55.2884 13.0315 53.822 13.0315C52.3557 13.0315 51.167 14.2317 51.167 15.7122C51.167 17.1926 52.3557 18.3928 53.822 18.3928Z" fill="#fff"/>
<path d="M66.5067 2.42066C65.0417 0.806862 62.9771 0 60.3132 0C57.7824 0 55.8064 0.830015 54.386 2.48797C53.0092 4.10177 52.3214 6.34387 52.3214 9.21212C52.3214 10.4092 52.436 11.4939 52.6616 12.4702C53.0867 12.2778 53.5566 12.1684 54.0527 12.1684C55.9347 12.1684 57.4605 13.7088 57.4605 15.6091C57.4605 16.462 57.1514 17.2408 56.6424 17.8419C57.7134 18.3646 58.9591 18.626 60.3797 18.626C62.4662 18.626 64.1977 18.1112 65.5746 17.0795C66.9501 16.094 67.8824 14.6587 68.3715 12.776H65.0418C64.509 12.776 64.098 12.8884 63.8097 13.1122C63.5203 13.337 63.3538 13.5156 63.31 13.6501C63.1771 13.7846 63.0542 13.9086 62.9438 14.02C62.8324 14.1324 62.7107 14.2111 62.5775 14.2553C62.0448 14.5695 61.4007 14.726 60.6461 14.726C59.491 14.726 58.6253 14.3677 58.0488 13.6501C57.4266 12.9777 57.0935 11.947 57.05 10.557H68.5714C68.6152 10.4677 68.6379 10.3111 68.6379 10.0863C68.6379 10.0421 68.6379 9.95182 68.6379 9.81734C68.6379 9.68286 68.6379 9.52627 68.6379 9.34667C68.6379 6.38795 67.9272 4.07965 66.5067 2.42066ZM57.0499 7.53108C57.0934 6.36591 57.4265 5.46969 58.0488 4.84139C58.6699 4.21413 59.4691 3.89998 60.4463 3.89998C61.5119 3.89998 62.333 4.21413 62.9106 4.84139C63.4434 5.4245 63.7533 6.32072 63.8428 7.53108H57.0499Z" fill="#fff"/>
<path d="M54.7668 20.5764V23.0736C54.7668 24.1076 54.2322 24.6213 53.1696 24.6148C52.1132 24.5954 51.5852 24.0165 51.5852 22.872C51.5852 21.7015 52.036 21.1032 52.9442 21.0707C53.3693 21.0707 53.6976 21.2462 53.9167 21.6039V20.1407H54.3418C54.5737 20.1408 54.7668 20.3425 54.7668 20.5764ZM52.4676 22.833C52.4611 23.5288 52.6929 23.8801 53.1825 23.8801C53.672 23.8801 53.9168 23.5289 53.9168 22.833C53.8974 22.1697 53.6592 21.8446 53.1954 21.8446C52.7317 21.8446 52.4933 22.1698 52.4676 22.833Z" fill="#fff"/>
<path d="M56.738 24.6409C55.7074 24.6084 55.1922 24.0037 55.1922 22.8331C55.1922 21.6626 55.714 21.0772 56.7509 21.0708C57.8329 21.0708 58.3418 21.7406 58.2774 23.0868H56.0746C56.1068 23.6134 56.3321 23.8801 56.7509 23.8801C56.9506 23.8801 57.1374 23.7956 57.3048 23.633C57.3819 23.5484 57.4786 23.5094 57.5947 23.5094H58.2257C58.0388 24.2377 57.5753 24.6409 56.738 24.6409ZM56.0873 22.4689H57.369C57.3177 22.0137 57.1051 21.7795 56.7379 21.7795C56.3708 21.7796 56.1518 22.0137 56.0873 22.4689Z" fill="#fff"/>
<path d="M60.229 23.9386C60.5896 23.9386 60.7699 23.8346 60.7699 23.6134C60.7699 23.4379 60.4738 23.2948 59.8876 23.1908C59.1341 23.0542 58.7476 22.7161 58.7411 22.1764C58.7411 21.435 59.3207 21.0837 60.1001 21.0708C60.5382 21.0708 60.886 21.1683 61.1436 21.3634C61.3946 21.5651 61.5301 21.8447 61.5492 22.2023H61.0083C60.8086 22.1958 60.6798 22.1243 60.6283 21.9877C60.5702 21.8382 60.3964 21.7537 60.1128 21.7537C59.778 21.7537 59.6105 21.8447 59.6105 22.0203C59.6105 22.1959 59.8295 22.3324 60.274 22.4169C60.8537 22.534 61.2337 22.6836 61.4205 22.8592C61.5814 23.0283 61.6588 23.2363 61.6588 23.4705C61.6588 24.3158 61.0018 24.628 60.1 24.628C59.6234 24.628 59.2628 24.5239 59.0308 24.3223C58.7733 24.1273 58.6445 23.828 58.6445 23.4314H59.5203C59.5399 23.8085 59.8103 23.9386 60.229 23.9386Z" fill="#fff"/>
<path d="M62.5414 20.1409C62.8249 20.1409 62.9602 20.2839 62.9536 20.5635V20.8172H62.097V20.1409H62.5414ZM62.5414 21.1227C62.8184 21.1227 62.9536 21.2594 62.9536 21.539V24.5629H62.097V21.1228H62.5414V21.1227Z" fill="#fff"/>
<path d="M63.4499 22.8462C63.4499 21.7016 63.978 21.1293 65.0343 21.1098C66.0969 21.1033 66.6315 21.6105 66.6315 22.6445V24.6799C66.6315 25.5449 66.0906 25.9805 65.002 26.0001C64.2292 26.0001 63.7397 25.6359 63.54 24.9075H64.4868C64.5447 25.1546 64.7444 25.2717 65.0987 25.2717C65.5494 25.2717 65.7813 25.0051 65.7813 24.4719C65.7813 24.4719 65.7813 24.4784 65.7813 24.1207C65.5623 24.4588 65.2339 24.628 64.8088 24.628C63.9007 24.628 63.4499 24.0297 63.4499 22.8462ZM65.7815 22.8721C65.7878 22.1764 65.5495 21.8317 65.06 21.8317C64.5705 21.8317 64.3323 22.1764 64.3323 22.8721C64.3518 23.5354 64.5834 23.8671 65.0472 23.8671C65.5111 23.8671 65.7557 23.5354 65.7815 22.8721Z" fill="#fff"/>
<path d="M69.5623 24.5629C69.2788 24.5435 69.1372 24.4068 69.1372 24.1337V22.3649C69.1178 22.0073 68.9245 21.8317 68.5445 21.8317C68.1645 21.8317 67.9713 22.0073 67.9648 22.3649V24.5629H67.0953V22.5404C67.0953 21.5586 67.5849 21.0708 68.5574 21.0708C69.5301 21.0708 70.0068 21.5586 70.0002 22.5404V24.5629H69.5623Z" fill="#fff"/>
</svg>